<svg width="275" height="45" viewBox="0 0 275 45" fill="none" xmlns="http://www.w3.org/2000/svg">
<g clip-path="url(#clip0_291_374)">
<path d="M32.9242 13.4492H6.96715C6.4496 13.4492 5.95196 13.6592 5.5837 14.0292L0.577416 19.0492C-0.656739 20.2892 0.219113 22.4192 1.96086 22.4192H6.15101H15.0787H41.0358C41.5533 22.4192 42.051 22.2092 42.4192 21.8392L47.4156 16.8192C48.6497 15.5792 47.7739 13.4492 46.0321 13.4492H41.842H32.9142H32.9242Z" fill="#017AFF"/>
<path d="M15.0785 26.9004H6.96696C6.44941 26.9004 5.95177 27.1104 5.58352 27.4804L0.587181 32.5004C-0.646973 33.7404 0.228879 35.8704 1.97063 35.8704H6.16078H15.0885H23.2001C23.7176 35.8704 24.2153 35.6604 24.5835 35.2904L29.5798 30.2704C30.814 29.0304 29.9382 26.9004 28.1964 26.9004H24.0063H15.0785Z" fill="#017AFF"/>
<path d="M15.0787 8.97H41.0358C41.5533 8.97 42.051 8.76 42.4192 8.39L47.4156 3.37C48.6597 2.12 47.7838 0 46.0421 0H41.8519H32.9242H6.96715C6.4496 0 5.95196 0.21 5.5837 0.58L0.577416 5.6C-0.656738 6.84 0.219113 8.97 1.96086 8.97H6.15101H15.0787Z" fill="#017AFF"/>
<path d="M56 35.8305V0.0605469H84.38L84.32 7.78055H65.53L65.59 14.9405H82.57V21.8805H65.59V35.8205H56V35.8305Z" fill="#017AFF"/>
<path d="M111.779 35.8302C111.189 35.8302 110.559 35.7402 109.879 35.5502C109.199 35.3702 108.569 35.0802 107.979 34.7002C107.389 34.3102 106.899 33.7902 106.489 33.1302C106.079 32.4702 105.859 31.6802 105.829 30.7602C105.019 32.8502 103.779 34.3102 102.109 35.1102C100.439 35.9202 98.5593 36.3202 96.4593 36.3202C95.2493 36.3202 94.0593 36.1802 92.8993 35.9102C91.7393 35.6302 90.6993 35.1902 89.7593 34.5902C88.8193 33.9802 88.0393 33.2002 87.4193 32.2502C86.7893 31.3002 86.4293 30.1602 86.3193 28.8302C86.1393 27.1002 86.3193 25.6302 86.8693 24.4202C87.4193 23.2102 88.2493 22.2202 89.3493 21.4702C90.4493 20.7202 91.7693 20.1802 93.2893 19.8402C94.8093 19.5102 96.4593 19.3402 98.2193 19.3402L105.769 19.4002V16.8602C105.769 15.9802 105.459 15.2502 104.829 14.6802C104.199 14.1102 102.969 13.8302 101.139 13.8302C99.5193 13.8302 98.3493 14.0902 97.6093 14.6002C96.8693 15.1102 96.5093 15.9002 96.5093 16.9702H88.2993C88.2293 15.1702 88.4993 13.6402 89.1293 12.3902C89.7493 11.1402 90.6393 10.1302 91.7793 9.36016C92.9193 8.59016 94.2593 8.03016 95.7993 7.68016C97.3393 7.33016 98.9993 7.16016 100.759 7.16016C102.519 7.16016 104.249 7.29016 105.939 7.55016C107.629 7.81016 109.139 8.27016 110.459 8.93016C111.779 9.59016 112.849 10.5002 113.659 11.6602C114.469 12.8202 114.869 14.2802 114.869 16.0402V27.5602C114.869 28.3002 114.999 28.8802 115.259 29.3202C115.519 29.7602 116.009 29.9802 116.749 29.9802H116.969V35.8202H111.789L111.779 35.8302ZM99.8193 24.3602C99.1893 24.3602 98.5993 24.3902 98.0293 24.4402C97.4593 24.5002 96.9493 24.6302 96.5093 24.8502C96.0693 25.0702 95.7193 25.3902 95.4593 25.8102C95.1993 26.2302 95.0693 26.8302 95.0693 27.6002C95.0693 28.7402 95.4293 29.4602 96.1493 29.7802C96.8693 30.0902 97.7593 30.2502 98.8193 30.2502C99.4793 30.2502 100.219 30.1302 101.029 29.8902C101.839 29.6502 102.589 29.3202 103.289 28.9002C103.989 28.4802 104.579 27.9602 105.049 27.3602C105.519 26.7602 105.769 26.0602 105.769 25.2902V24.2402L99.8193 24.3502V24.3602Z" fill="#017AFF"/>
<path d="M141.479 16.7591C141.299 15.6891 140.689 14.9791 139.659 14.6091C138.629 14.2391 137.119 14.0591 135.139 14.0591C134.329 14.0591 133.579 14.1191 132.879 14.2491C132.179 14.3791 131.589 14.5591 131.119 14.7991C130.639 15.0391 130.289 15.3391 130.069 15.7091C129.849 16.0791 129.809 16.4991 129.959 16.9791C130.139 17.5291 130.749 17.9091 131.779 18.1091C132.809 18.3091 134.049 18.4891 135.499 18.6291C136.949 18.7791 138.489 18.9591 140.129 19.1791C141.769 19.3991 143.279 19.8091 144.679 20.3891C146.079 20.9791 147.219 21.7991 148.119 22.8691C149.019 23.9391 149.449 25.4091 149.419 27.2791C149.379 29.2991 148.899 30.8991 147.959 32.0791C147.019 33.2591 145.859 34.1491 144.489 34.7491C143.119 35.3491 141.659 35.7391 140.139 35.9091C138.619 36.0791 137.249 36.1591 136.029 36.1591C134.299 36.1591 132.569 36.0591 130.819 35.8591C129.069 35.6591 127.499 35.2191 126.109 34.5391C124.709 33.8591 123.569 32.8991 122.689 31.6491C121.809 30.3991 121.369 28.7291 121.369 26.6291H129.359C129.359 27.1491 129.609 27.5691 130.099 27.8991C130.599 28.2291 131.169 28.4791 131.839 28.6391C132.509 28.7991 133.179 28.9191 133.879 28.9691C134.579 29.0191 135.129 29.0491 135.529 29.0491H136.689C137.349 29.0491 138.039 28.9991 138.759 28.9091C139.479 28.8191 140.129 28.6391 140.719 28.3891C141.309 28.1291 141.599 27.7691 141.599 27.2891C141.599 26.6291 141.109 26.1691 140.139 25.9091C139.169 25.6491 137.939 25.4291 136.479 25.2491C135.009 25.0691 133.409 24.8591 131.679 24.6191C129.949 24.3791 128.349 23.9591 126.879 23.3491C125.409 22.7391 124.189 21.8691 123.219 20.7291C122.249 19.5891 121.759 18.0291 121.759 16.0391C121.759 14.7491 121.999 13.5691 122.479 12.4891C122.959 11.4091 123.729 10.4591 124.799 9.64914C125.869 8.83914 127.259 8.21914 128.989 7.77914C130.719 7.33914 132.829 7.11914 135.329 7.11914C137.169 7.11914 138.889 7.25914 140.509 7.52914C142.129 7.80914 143.549 8.29914 144.779 9.01914C146.009 9.73914 147.009 10.7191 147.779 11.9691C148.549 13.2191 149.009 14.8191 149.159 16.7691H141.499L141.479 16.7591Z" fill="#017AFF"/>
<path d="M171.3 35.72L166.17 35.83C165.07 35.83 163.99 35.75 162.95 35.58C161.91 35.41 160.96 35.09 160.11 34.62C159.26 34.14 158.58 33.45 158.07 32.55C157.55 31.65 157.3 30.45 157.3 28.94V15.05H153V7.89H157.47V0H166.67V7.88H172.46V15.04H166.67V25.07C166.67 25.88 166.72 26.5 166.81 26.94C166.9 27.38 167.11 27.7 167.44 27.9C167.77 28.1 168.24 28.2 168.85 28.2C169.46 28.2 170.27 28.18 171.3 28.14V35.69V35.72Z" fill="#017AFF"/>
<path d="M178.189 35.8294V1.10938H193.789C195.549 1.10938 197.189 1.28937 198.699 1.62937C200.209 1.97938 201.509 2.56938 202.609 3.38938C203.709 4.21938 204.579 5.29938 205.229 6.63938C205.869 7.97938 206.189 9.65937 206.189 11.6794C206.189 13.5494 205.849 15.1694 205.169 16.5294C204.489 17.8894 203.589 18.9894 202.469 19.8394C201.349 20.6894 200.039 21.3094 198.529 21.7094C197.019 22.1194 195.439 22.3194 193.789 22.3194H183.149V35.8194H178.189V35.8294ZM183.149 19.1294H193.679C194.779 19.1294 195.789 19.0094 196.709 18.7694C197.629 18.5294 198.429 18.1294 199.109 17.5594C199.789 16.9894 200.309 16.2294 200.679 15.2694C201.049 14.3094 201.229 13.1394 201.229 11.7394C201.229 10.3394 201.029 9.22937 200.619 8.40938C200.219 7.57938 199.659 6.94938 198.969 6.50938C198.269 6.06938 197.459 5.76937 196.539 5.62937C195.619 5.47937 194.669 5.40938 193.669 5.40938H183.139V19.1294H183.149Z" fill="#017AFF"/>
<path d="M233.8 35.8302C232.26 35.7902 231.02 35.3602 230.08 34.5302C229.14 33.7002 228.68 32.5202 228.68 30.9802C228.09 32.8202 226.99 34.2002 225.37 35.1102C223.75 36.0302 221.95 36.5202 219.97 36.6002C218.68 36.6702 217.41 36.5402 216.14 36.2102C214.87 35.8802 213.73 35.3802 212.72 34.7202C211.71 34.0602 210.88 33.2302 210.24 32.2402C209.6 31.2502 209.26 30.0902 209.22 28.7702C209.18 26.7502 209.54 25.1502 210.29 23.9702C211.04 22.7902 212 21.9002 213.16 21.3002C214.32 20.7002 215.59 20.3102 216.99 20.1402C218.39 19.9702 219.69 19.8902 220.9 19.8902H228.73V16.7502C228.73 16.0502 228.53 15.4602 228.12 14.9602C227.71 14.4602 227.17 14.0602 226.49 13.7502C225.81 13.4402 225.04 13.2102 224.17 13.0602C223.31 12.9102 222.4 12.8402 221.44 12.8402C220.56 12.8402 219.71 12.9202 218.9 13.0902C218.09 13.2602 217.37 13.5002 216.75 13.8302C216.12 14.1602 215.63 14.5902 215.26 15.1302C214.89 15.6602 214.71 16.2802 214.71 16.9802H210.3C210.3 15.4702 210.61 14.2102 211.24 13.2002C211.86 12.1902 212.7 11.3702 213.75 10.7502C214.8 10.1302 215.99 9.68023 217.33 9.40023C218.67 9.12023 220.08 8.99023 221.55 8.99023C223.87 8.99023 225.79 9.24023 227.31 9.73023C228.83 10.2302 230.06 10.8402 230.97 11.5802C231.89 12.3202 232.53 13.1102 232.9 13.9802C233.27 14.8402 233.45 15.6602 233.45 16.4302V30.3702C233.45 31.5102 234.02 32.0802 235.16 32.0802H235.66V35.8302H233.79H233.8ZM213.96 27.7302C213.89 28.5802 214 29.3202 214.29 29.9602C214.58 30.6002 215.01 31.1402 215.56 31.5902C216.11 32.0302 216.77 32.3702 217.54 32.6102C218.31 32.8502 219.14 32.9702 220.02 32.9702C220.9 32.9702 221.72 32.8702 222.58 32.6702C223.44 32.4702 224.26 32.1602 225.03 31.7302C225.8 31.3102 226.51 30.7602 227.15 30.0802C227.79 29.4002 228.3 28.6002 228.67 27.6802V22.9902H220.73C220.25 22.9902 219.65 23.0302 218.91 23.1002C218.17 23.1702 217.46 23.3702 216.76 23.6802C216.06 23.9902 215.45 24.4602 214.91 25.0902C214.38 25.7202 214.06 26.6002 213.95 27.7402L213.96 27.7302Z" fill="#017AFF"/>
<path d="M251.77 40.1291C251.14 41.4891 250.22 42.5691 248.99 43.3791C247.76 44.1891 246.41 44.5891 244.94 44.5891H238.77V40.8991H244.23C245.08 40.8991 245.84 40.6691 246.52 40.2091C247.2 39.7491 247.71 39.1491 248.04 38.4191L249.03 36.2691L237.4 9.53906H242.36L251.34 30.5391H251.67L260.6 9.53906H265.28L251.78 40.1291H251.77Z" fill="#017AFF"/>
<path d="M267.21 5.78V2.8H266V2H269.42V2.8H268.21V5.78H267.2H267.21Z" fill="#017AFF"/>
<path d="M270 2H271.36L272.43 4.49L273.6 2H274.95V5.77H273.94V3.8L274 3.04L272.95 5.33H271.88L270.95 3.23L271.01 3.81V5.78H270V2.01V2Z" fill="#017AFF"/>
</g>
<defs>
<clipPath id="clip0_291_374">
<rect width="275" height="45" fill="white"/>
</clipPath>
</defs>
</svg>
